<?xml version="1.0" encoding="utf-8"?>
<!-- Generator: Adobe Illustrator 18.1.1, SVG Export Plug-In . SVG Version: 6.00 Build 0)  -->
<!DOCTYPE svg PUBLIC "-//W3C//DTD SVG 1.1//EN" "http://www.w3.org/Graphics/SVG/1.1/DTD/svg11.dtd">
<svg version="1.1" id="Layer_1" xmlns="http://www.w3.org/2000/svg" xmlns:xlink="http://www.w3.org/1999/xlink" x="0px" y="0px"
	 viewBox="0 0 100 100" enable-background="new 0 0 100 100" xml:space="preserve">
<rect x="0" fill="#FFFFFF" width="100" height="100"/>
<path fill="#60A8DC" d="M0,0v100h100V0H0z M86.6,31.2c0,0.8,0.1,1.6,0.1,2.4c0,24.9-19,53.7-53.7,53.7c-10.7,0-20.6-3.1-28.9-8.5
	c1.5,0.2,3,0.3,4.5,0.3c8.8,0,17-3,23.4-8.1c-8.3-0.2-15.2-5.6-17.6-13.1c1.2,0.2,2.3,0.3,3.6,0.3c1.7,0,3.4-0.2,5-0.7
	c-8.6-1.7-15.1-9.4-15.1-18.5c0-0.1,0-0.2,0-0.2c2.5,1.4,5.5,2.3,8.6,2.4c-5.1-3.4-8.4-9.2-8.4-15.7c0-3.5,0.9-6.7,2.6-9.5
	C19.7,27.5,33.6,35,49.3,35.8c-0.3-1.4-0.5-2.8-0.5-4.3c0-10.4,8.5-18.9,18.9-18.9c5.4,0,10.3,2.3,13.8,6c4.3-0.8,8.3-2.4,12-4.6
	c-1.4,4.4-4.4,8.1-8.3,10.4C89,24,92.6,23,96,21.5C93.5,25.2,90.3,28.6,86.6,31.2z"/>
</svg>
